# xmcd
#
# Track frame offsets:
# 150
# 8799
# 18346
#
# Disc length: 502 seconds
#
# Revision: 0
# Processed by: cddbd v1.5.2PL0 Copyright (c) Steve Scherf et al.
# Submitted via: Audion 3.0.2 (http://www.panic.com/audion/)
#
DISCID=1501f403
DTITLE=er - ml
DYEAR=1900
DGENRE=
TTITLE0=ml 1
TTITLE1=ml2
TTITLE2=ml2
EXTD=
EXTT0=
EXTT1=
EXTT2=
PLAYORDER=
